<?xml version="1.0" encoding="UTF-8" standalone="no"?><!DOCTYPE svg PUBLIC "-//W3C//DTD SVG 1.1//EN" "http://www.w3.org/Graphics/SVG/1.1/DTD/svg11.dtd"><svg width="100%" height="100%" viewBox="0 0 447 256" version="1.1" xmlns="http://www.w3.org/2000/svg" xmlns:xlink="http://www.w3.org/1999/xlink" xml:space="preserve" xmlns:serif="http://www.serif.com/" style="fill-rule:evenodd;clip-rule:evenodd;stroke-linejoin:round;stroke-miterlimit:2;"><path d="M88.505,6.009c17.131,-0.635 32.833,3.093 47.108,11.182c14.275,8.089 25.695,19.271 34.26,33.546c8.565,14.275 12.848,29.819 12.848,46.632l0,129.427c0,3.49 -1.586,5.869 -4.758,7.138c-3.173,1.269 -5.869,0.634 -8.09,-1.904l-11.896,-8.565c-1.586,-1.268 -3.41,-1.824 -5.472,-1.665c-2.062,0.159 -3.727,1.031 -4.996,2.617l-20.461,22.84c-1.269,1.586 -3.014,2.379 -5.234,2.379c-2.221,0 -3.965,-0.793 -5.234,-2.379l-19.51,-21.888c-1.586,-1.586 -3.489,-2.379 -5.71,-2.379c-2.22,0 -4.123,0.793 -5.71,2.379l-19.509,21.888c-1.269,1.586 -3.013,2.379 -5.234,2.379c-2.221,0 -3.965,-0.793 -5.234,-2.379l-20.461,-22.84c-1.269,-1.586 -2.934,-2.458 -4.996,-2.617c-2.062,-0.159 -3.886,0.397 -5.473,1.665l-11.895,8.565c-2.221,2.538 -4.917,3.173 -8.09,1.904c-3.172,-1.269 -4.758,-3.648 -4.758,-7.138l0,-125.62c0,-16.496 3.886,-31.961 11.658,-46.394c7.772,-14.434 18.478,-26.013 32.119,-34.736c13.64,-8.724 28.55,-13.403 44.728,-14.037Zm-27.598,143.498l12.096,-19.2c5.119,-8.192 8.511,-13.631 10.175,-16.319c2.176,-3.84 3.616,-6.848 4.32,-9.024c0.704,-2.176 1.056,-4.736 1.056,-7.68c0,-4.992 -1.248,-9.6 -3.744,-13.823c-2.496,-4.224 -5.856,-7.584 -10.079,-10.08c-4.224,-2.496 -8.832,-3.744 -13.824,-3.744c-4.992,0 -9.6,1.248 -13.824,3.744c-4.223,2.496 -7.583,5.856 -10.079,10.08c-2.496,4.223 -3.744,8.831 -3.744,13.823c0,2.944 0.352,5.536 1.056,7.776c0.704,2.24 2.208,5.28 4.512,9.12c1.536,2.688 4.863,8.127 9.983,16.319c4.864,7.552 8.896,13.888 12.096,19.008Zm0,-36.911c4.124,0 7.693,-1.507 10.706,-4.521c3.014,-3.013 4.521,-6.582 4.521,-10.706c0,-4.124 -1.507,-7.693 -4.521,-10.706c-3.013,-3.014 -6.582,-4.521 -10.706,-4.521c-4.124,0 -7.693,1.507 -10.706,4.521c-3.014,3.013 -4.521,6.582 -4.521,10.706c0,4.124 1.507,7.693 4.521,10.706c3.013,3.014 6.582,4.521 10.706,4.521Zm60.907,0c4.124,0 7.693,-1.507 10.706,-4.521c3.014,-3.013 4.521,-6.582 4.521,-10.706c0,-4.124 -1.507,-7.693 -4.521,-10.706c-3.013,-3.014 -6.582,-4.521 -10.706,-4.521c-4.124,0 -7.693,1.507 -10.706,4.521c-3.014,3.013 -4.521,6.582 -4.521,10.706c0,4.124 1.507,7.693 4.521,10.706c3.013,3.014 6.582,4.521 10.706,4.521Z"/><g><path d="M208.747,91.584l18.197,-91.584l29.674,66.205l30.739,-66.205l16.349,91.584l-13.381,0l-8.343,-51.42l-25.587,55.337l-24.86,-55.392l-9.295,51.475l-13.493,0Z" style="fill-rule:nonzero;"/><path d="M366.67,70.895l-33.273,0l-8.658,20.689l-12.634,0l38.457,-90.536l37.098,90.536l-12.836,0l-8.154,-20.689Zm-4.782,-12.083l-11.527,-28.965l-12.081,28.965l23.608,0Z" style="fill-rule:nonzero;"/><path d="M410.644,56.992l0,34.592l-13.046,0l0,-85.184l14.781,0c7.242,0 12.71,0.496 16.405,1.489c3.733,0.994 7.018,2.869 9.855,5.628c4.964,4.781 7.446,10.813 7.446,18.096c0,7.797 -2.65,13.977 -7.95,18.537c-5.301,4.561 -12.449,6.842 -21.444,6.842l-6.047,0Zm0,-11.917l4.871,0c11.982,0 17.973,-4.543 17.973,-13.628c0,-8.79 -6.178,-13.185 -18.533,-13.185l-4.311,0l0,26.813Z" style="fill-rule:nonzero;"/></g><g><path d="M249.039,255.316c-6.618,0.86 -12.351,-0.414 -17.199,-3.821c-3.865,-2.435 -7.695,-6.953 -11.49,-13.557c-2.4,-4.338 -4.68,-10.588 -6.843,-18.75c-1.718,-6.628 -2.968,-12.951 -3.751,-18.968c-0.323,-1.548 -0.735,-4.248 -1.236,-8.098l-0.798,-6.137l-0.938,-7.22c-0.673,-5.174 -1.298,-11.394 -1.876,-18.661c-0.316,-6.199 -0.167,-12.581 0.448,-19.146c0.75,-6.461 2.348,-12.053 4.793,-16.775c2.414,-4.964 6.023,-8.737 10.826,-11.319c2.899,-1.234 5.672,-2.022 8.319,-2.367c5.054,-0.657 7.8,0.7 8.238,4.069c0.172,1.323 -0.142,2.435 -0.943,3.334c-0.801,0.9 -1.923,1.443 -3.367,1.631c-0.482,0.063 -1.347,-0.008 -2.598,-0.213l-2.573,-0.032c-2.287,0.297 -4.242,1.255 -5.867,2.873c-1.625,1.619 -2.867,3.83 -3.727,6.633c-2.016,6.136 -3.06,12.696 -3.131,19.679c-0.229,8.595 0.004,16.029 0.697,22.302c0.463,5.446 1.086,11.177 1.868,17.194l0.634,4.873c0.098,1.7 0.312,3.814 0.64,6.341c0.798,6.137 1.881,12.114 3.249,17.932c1.389,6.916 3.495,12.761 6.318,17.533c2.66,5.405 6.305,8.969 10.934,10.692c2.202,0.937 4.807,1.21 7.815,0.819c5.295,-0.688 9.419,-3.794 12.371,-9.317c-0.667,-4.196 -1.504,-8.278 -2.509,-12.246c-1.006,-3.969 -2.084,-6.612 -3.234,-7.931l-2.661,0.713l-4.284,0.924c-4.092,0.532 -6.364,-0.947 -6.818,-4.436c-0.14,-1.083 0.336,-2.124 1.43,-3.123c1.094,-0.999 2.64,-1.811 4.638,-2.438c3.26,-1.281 6.214,-2.093 8.861,-2.437c2.406,-0.313 4.389,0.347 5.947,1.98c1.558,1.633 2.517,3.833 2.877,6.601c0.516,3.97 1.822,9.307 3.917,16.009c2.079,6.582 3.377,11.859 3.893,15.829c0.172,1.324 -0.1,2.522 -0.817,3.594c-0.717,1.072 -1.678,1.686 -2.881,1.843c-3.008,0.391 -5.218,-0.607 -6.629,-2.993l-0.024,-0.18l-3.713,2.501c-3.344,2.515 -6.279,3.937 -8.806,4.266Z" style="fill-rule:nonzero;"/><path d="M295.301,246.915c-1.564,0.204 -3.048,-0.154 -4.453,-1.073c-1.404,-0.919 -2.268,-2.152 -2.591,-3.701l-0.611,-4.693l-0.469,-3.609c-0.261,-1.068 -0.485,-2.323 -0.673,-3.767c-0.329,-2.527 -1.01,-6.354 -2.043,-11.481l-1.863,-11.505c-0.767,-5.896 -1.728,-14.704 -2.885,-26.422c-0.879,-10.532 -1.781,-19.347 -2.704,-26.446c-0.219,-1.685 -0.728,-4.188 -1.527,-7.51c-0.814,-3.443 -1.323,-5.946 -1.527,-7.511c-1.11,-8.543 0.861,-13.143 5.915,-13.8c3.971,-0.516 8.675,-0.333 14.113,0.551c5.437,0.884 8.297,2.409 8.579,4.575c0.156,1.203 -0.211,2.382 -1.1,3.538c-0.89,1.156 -2.018,2.129 -3.384,2.918c-5.288,-1.148 -10.017,-1.757 -14.187,-1.827c0.355,1.79 0.752,4.369 1.19,7.738c0.626,4.813 1.129,9.153 1.509,13.019c0.39,5.823 0.773,10.178 1.148,13.066l0.917,2.817l2.864,-0.556c0.947,-0.245 2.143,-0.462 3.587,-0.649c5.775,-0.751 8.882,0.558 9.32,3.927c0.172,1.324 -0.224,2.507 -1.19,3.55c-0.966,1.044 -2.291,1.675 -3.975,1.894c-2.166,0.281 -3.866,0.38 -5.101,0.296l-4.512,0.586c0.647,3.098 1.362,7.655 2.144,13.671c0.782,6.016 1.426,11.439 1.931,16.268c0.594,7.387 1.125,12.885 1.594,16.495c0.876,6.738 1.435,10.092 1.675,10.061l5.933,-0.955c2.03,-0.387 4.489,-0.767 7.377,-1.143c4.572,-0.594 7.046,0.552 7.422,3.44c0.219,1.685 -0.365,3.076 -1.752,4.174c-1.387,1.098 -3.163,1.788 -5.329,2.07l-15.342,1.994Z" style="fill-rule:nonzero;"/><path d="M346.954,237.63c-10.468,1.361 -15.937,0.237 -16.406,-3.373c-0.376,-2.888 1.302,-4.574 5.032,-5.059l1.985,-0.258l1.829,-0.055c0.962,-0.125 1.585,-0.512 1.868,-1.16c0.282,-0.649 0.322,-1.755 0.119,-3.319c-0.266,-2.046 -0.801,-5.219 -1.605,-9.52c-0.736,-2.841 -1.83,-7.96 -3.281,-15.358c-3.477,-18.269 -5.825,-32.097 -7.045,-41.482c-0.438,-3.369 -0.777,-6.446 -1.016,-9.229l-1.017,-9.228c-0.516,-3.971 -1.127,-7.257 -1.832,-9.857c-1.862,0.732 -3.215,1.152 -4.057,1.262c-2.888,0.375 -4.52,-0.881 -4.895,-3.769c-0.188,-1.444 0.55,-2.825 2.214,-4.142c1.665,-1.318 3.849,-2.397 6.554,-3.238c4.688,-1.589 8.897,-2.625 12.627,-3.11c1.444,-0.188 2.744,0.163 3.9,1.053c1.156,0.89 1.82,1.996 1.992,3.32c0.172,1.323 -0.071,2.517 -0.728,3.582c-0.657,1.064 -1.587,1.674 -2.79,1.831c-0.722,0.094 -1.332,0.112 -1.829,0.054l-1.443,0.188c-1.204,0.156 -2.041,0.54 -2.512,1.152c-0.471,0.612 -0.613,1.64 -0.425,3.084c1.517,11.672 4.523,29.146 9.018,52.422c0.804,4.301 2.114,10.615 3.931,18.945c1.321,5.456 2.357,11.073 3.108,16.849l0.892,6.858c0.706,-0.214 1.902,-0.431 3.586,-0.65c5.054,-0.657 7.855,1.121 8.402,5.332l0.141,1.083l-4.113,3.655c-0.121,0.016 -0.508,0.097 -1.162,0.243c-0.654,0.146 -1.883,0.337 -3.688,0.571c-3.819,0.741 -6.271,1.182 -7.354,1.323Z" style="fill-rule:nonzero;"/><path d="M382.322,235.785c-2.213,-0.079 -4.15,-0.623 -5.81,-1.63c-1.661,-1.008 -2.736,-2.459 -3.227,-4.353l1.586,-3.326c0.722,-0.094 1.897,-0.002 3.523,0.276c1.852,0.126 3.26,0.127 4.222,0.002c2.166,-0.282 3.996,-1.499 5.491,-3.651c1.494,-2.152 2.459,-4.847 2.895,-8.085c0.813,-5.979 0.923,-11.255 0.328,-15.828c-1.032,-7.941 -4.646,-15.976 -10.842,-24.102l-2.431,-3.172c-2.803,-3.673 -5.19,-6.973 -7.161,-9.898c-1.971,-2.925 -3.732,-6.122 -5.285,-9.591c-2.054,-4.505 -3.386,-9.104 -3.996,-13.797c-0.688,-5.294 -0.204,-10.986 1.451,-17.075c0.844,-2.924 2.265,-5.403 4.264,-7.437c2,-2.034 4.383,-3.231 7.151,-3.591c2.165,-0.281 4.271,0.148 6.316,1.29c2.045,1.141 3.193,2.674 3.443,4.6c0.141,1.083 -0.171,1.98 -0.935,2.691c-0.764,0.711 -1.748,1.145 -2.951,1.301c-1.324,0.172 -2.634,-0.025 -3.931,-0.59c-2.632,0.464 -4.433,3.085 -5.402,7.86c-0.776,4.384 -0.985,7.96 -0.625,10.727c0.454,3.49 1.453,6.939 2.997,10.348c1.545,3.409 3.347,6.447 5.407,9.116l4.91,6.704l7.865,11.091c2.123,3.15 3.985,6.885 5.587,11.204c1.601,4.319 2.699,8.765 3.294,13.338c0.954,7.34 0.177,14.538 -2.332,21.594c-1.247,3.588 -3.271,6.604 -6.073,9.049c-2.803,2.444 -6.069,3.909 -9.799,4.394l0.07,0.541Z" style="fill-rule:nonzero;"/><path d="M433.058,223.683l-1.095,-7.016c-0.387,-2.03 -0.744,-4.308 -1.072,-6.835l-0.618,-6.16c-0.533,-1.277 -3.148,-14.336 -7.846,-39.176c-4.698,-24.841 -7.629,-40.795 -8.792,-47.863c-7.01,0.667 -11.556,0.523 -13.638,-0.43c-1.449,-0.79 -2.252,-1.787 -2.408,-2.99c-0.125,-0.963 0.393,-1.917 1.555,-2.864c1.162,-0.946 2.404,-1.505 3.728,-1.677c3.369,-0.439 7.492,-0.73 12.367,-0.874c4.651,0.007 8.781,-0.224 12.391,-0.693l2.888,-0.376c3.73,-0.485 5.783,0.717 6.159,3.605c0.187,1.444 -0.262,2.695 -1.348,3.754c-1.086,1.059 -2.411,1.69 -3.975,1.893c-1.083,0.141 -2.671,0.164 -4.763,0.069l-3.704,-0.253l-0.063,0.926l-0.063,0.926c1.392,10.709 4.636,27.663 9.732,50.861c4.788,21.77 7.972,38.731 9.552,50.884c0.188,1.444 -0.28,2.79 -1.402,4.037c-1.123,1.247 -2.466,1.973 -4.031,2.176l-3.554,-1.924Z" style="fill-rule:nonzero;"/></g></svg>